# xmcd
#
# Track frame offsets:
# 150
# 15692
# 33427
# 50587
# 68957
# 79057
# 96502
# 110595
# 127179
# 146540
# 160785
#
# Disc length: 2372 seconds
#
#
# Revision: 5
# Processed by: cddbd v1.5.2PL0 Copyright (c) Steve Scherf et al.
# Submitted via: FreeRIP 2.945 
#
DISCID=9a09420b
DTITLE=Collin Raye - I Think About You
DYEAR=1995
DGENRE=Country
TTITLE0=I Think About You
TTITLE1=Not That Different
TTITLE2=On The Verge
TTITLE3=One Boy, One Girl
TTITLE4=Sweet Miss Behavin'
TTITLE5=Heart Full Of Rain
TTITLE6=What If Jesus Comes Back Like That
TTITLE7=The Time Machine
TTITLE8=I Love Being Wrong
TTITLE9=I Volunteer
TTITLE10=Love Remains
EXTD=
EXTT0=
EXTT1=
EXTT2=
EXTT3=
EXTT4=
EXTT5=
EXTT6=
EXTT7=
EXTT8=
EXTT9=
EXTT10=
PLAYORDER=
